<?xml version="1.0" encoding="UTF-8"?>
<svg xmlns="http://www.w3.org/2000/svg" version="1.2" viewBox="0 0 128 128" width="128" height="128">
  <style>.a{fill:#6797ea}.b{fill:#fff}</style>
  <path class="a" d="m64 0c35.3 0 64 28.7 64 64 0 35.3-28.7 64-64 64-35.3 0-64-28.7-64-64 0-35.3 28.7-64 64-64z"></path>
  <path fill-rule="evenodd" class="b" d="m94.2 39.5c-0.2-0.8-0.8-1.6-1.7-1.8l-27.4-7.6q-0.6-0.2-1.2 0l-27.5 7.6c-0.9 0.2-1.5 1-1.6 1.8-0.2 1.2-3.8 28.1 5.5 41.5 9.3 13.4 23.1 16.8 23.6 16.9q0.3 0.1 0.6 0.1 0.2 0 0.5-0.1c0.6-0.1 14.3-3.5 23.6-16.9 9.4-13.4 5.7-40.3 5.6-41.5zm-12 15.8l-18.8 18.6c-0.4 0.4-1 0.6-1.5 0.6-0.6 0-1.2-0.2-1.6-0.6l-11.6-11.5c-0.4-0.4-0.7-1-0.7-1.6 0-0.6 0.3-1.2 0.7-1.6l2.3-2.3c0.9-0.8 2.3-0.8 3.1 0l7.8 7.7 14.8-14.8c0.4-0.4 1-0.6 1.6-0.6 0.6 0 1.2 0.2 1.6 0.6l2.3 2.3c0.9 0.9 0.9 2.3 0 3.2z"></path>
</svg>
