<?xml version="1.0" encoding="UTF-8"?>
<svg xmlns="http://www.w3.org/2000/svg" version="1.2" viewBox="0 0 151 149" width="151" height="149">
  <style>.a{fill:#ff6b07;stroke:#f6f6f3;stroke-linejoin:round;stroke-width:7}.b{fill:#fff}</style>
  <path class="a" d="m76 0c41.4 0 75 33.4 75 74.5 0 41.1-33.6 74.5-75 74.5-41.4 0-75-33.4-75-74.5 0-41.1 33.6-74.5 75-74.5z"></path>
  <path fill-rule="evenodd" class="b" d="m89.4 40c0 0 3.4 0 3.4 0 0.7 0 1.2 0.5 1.2 1.1v3.4h-4.6zm-4.6 0h2.3v4.6h-2.3zm-43.3 4.6v-3.5c0-0.6 0.5-1.1 1.1-1.1h40v4.6zm52.4 2.2v25.2q-2.4-0.1-4.7 0.3c-1.7 0.3-2.9 1.8-2.8 3.5-1.2-1.3-3.1-1.5-4.5-0.5-2 1.4-3.8 3.1-5.2 5.1-0.9 1.4-0.7 3.3 0.6 4.5-1.7-0.1-3.2 1.1-3.6 2.8q-0.4 2.4-0.3 4.8c0 0-30.8 0-30.8 0-0.6 0-1.1-0.6-1.1-1.2v-44.5h4.5v43.4h2.3v-43.4zm-21.7 14.9c0-0.7-0.5-1.2-1.1-1.2h-4.5c-0.7 0-1.2 0.5-1.2 1.2 0 0.6 0.5 1.1 1.2 1.1 0 0 4.5 0 4.5 0 0.6 0 1.1-0.5 1.1-1.1q0 0 0 0zm-8.3-8l-1.5 1.5c-0.5 0.4-0.5 1.1 0 1.6 0.4 0.4 1.2 0.4 1.6 0l2.3-2.3q0 0 0 0c0.4-0.5 0.4-1.2 0-1.6l-2.3-2.3c-0.4-0.4-1.2-0.4-1.6 0-0.5 0.4-0.5 1.2 0 1.6zm-0.7 8c0-0.6-0.5-1.1-1.2-1.1h-8c-0.6 0-1.2 0.5-1.2 1.1 0 0.6 0.6 1.1 1.2 1.1 0 0 8 0 8 0 0.7 0 1.2-0.5 1.2-1.1q0 0 0 0zm-2.3 4.6q0 0 0 0c0-0.7-0.5-1.2-1.1-1.2h-3.5c-0.7 0-1.2 0.5-1.2 1.2 0 0.6 0.5 1.1 1.2 1.1 0 0 3.5 0 3.5 0 0.6 0 1.1-0.5 1.1-1.1zm-6.9 7.9c-0.6 0-1.2 0.5-1.2 1.2 0 0.6 0.6 1.1 1.2 1.1h4.5c0.6 0 1.1-0.5 1.1-1.1 0-0.7-0.5-1.2-1.1-1.2zm4.6-25.1c-0.7 0.1-1.2 0.6-1.2 1.2l0.1 6.8c0 0.7 0.5 1.2 1.1 1.2q0 0 0 0c0.6 0 1.1-0.5 1.1-1.2v-6.8c0-0.6-0.5-1.2-1.1-1.2q0 0 0 0zm-7.7 3.8c-0.4 0.5-0.4 1.2 0 1.6l2.3 2.3c0.4 0.4 1.1 0.4 1.6 0 0.4-0.4 0.4-1.2 0-1.6l-1.5-1.5 1.5-1.5c0.4-0.4 0.4-1.1 0-1.6-0.5-0.4-1.2-0.4-1.6 0zm3.9 33.6q0 0 0 0c0.4-0.5 0.4-1.2 0-1.6l-1.5-1.5 1.5-1.5c0.4-0.4 0.4-1.1 0-1.6-0.5-0.4-1.2-0.4-1.7 0l-2.2 2.3q0 0-0.1 0c-0.4 0.5-0.4 1.2 0.1 1.6l2.3 2.3q0 0 0 0c0.4 0.4 1.1 0.4 1.6 0zm3.8 1.5c0.6 0 1.1-0.5 1.1-1.2v-6.8c0-0.6-0.5-1.2-1.1-1.2q0 0 0 0c-0.7 0-1.2 0.6-1.2 1.2v6.8c0 0.7 0.5 1.2 1.2 1.2q0 0 0 0zm7.7-3.8c0.4-0.4 0.4-1.2 0-1.6l-2.3-2.3c-0.4-0.4-1.2-0.4-1.6 0-0.5 0.5-0.5 1.2 0 1.6l1.5 1.5-1.5 1.5c-0.5 0.4-0.5 1.1 0 1.6 0.4 0.4 1.2 0.4 1.6 0zm5.9-8.8c0-0.7-0.5-1.2-1.1-1.2h-8.1c-0.6 0-1.1 0.5-1.1 1.2 0 0.6 0.5 1.1 1.1 1.1h8.1c0.6 0 1.1-0.5 1.1-1.1zm2.3-4.6c0-0.6-0.5-1.1-1.1-1.1h-17.1c-0.7 0-1.2 0.5-1.2 1.1 0 0.6 0.5 1.2 1.2 1.2h17.1c0.6 0 1.1-0.6 1.1-1.2zm3.4-3.4c0.7 0 1.2-0.5 1.2-1.1 0-0.7-0.5-1.2-1.2-1.2h-13.6c-0.6 0-1.1 0.5-1.1 1.2 0 0.6 0.5 1.1 1.1 1.1zm4.6 3.4c0-0.6-0.5-1.1-1.1-1.1h-3.5c-0.6 0-1.1 0.5-1.1 1.1 0 0.6 0.5 1.2 1.1 1.2h3.5c0.6 0 1.1-0.6 1.1-1.2zm10.3 17.1c1.9 0 3.4 1.6 3.4 3.4 0 1.9-1.5 3.5-3.4 3.5-1.9 0-3.5-1.6-3.5-3.5 0-1.8 1.6-3.4 3.5-3.4zm16.8 0.2c0.3 2.2 0.3 4.3 0 6.4-0.1 0.6-0.6 1-1.2 1h-3.2q-0.3 0.9-0.7 1.7l2.3 2.3c0.4 0.4 0.4 1 0.1 1.5-1.2 1.7-2.7 3.3-4.5 4.5-0.5 0.3-1.1 0.2-1.5-0.1l-2.3-2.3q-0.8 0.4-1.7 0.7v3.2c0 0.6-0.4 1.1-0.9 1.1-2.2 0.4-4.3 0.4-6.4 0-0.6 0-1-0.5-1-1.1v-3.2q-0.9-0.3-1.7-0.7l-2.3 2.3c-0.4 0.3-1 0.4-1.5 0.1-1.7-1.2-3.3-2.8-4.5-4.5-0.3-0.5-0.3-1.1 0.1-1.5l2.3-2.3q-0.4-0.8-0.7-1.7h-3.2c-0.6 0-1.1-0.4-1.2-1-0.3-2.1-0.3-4.2 0-6.4 0.1-0.5 0.6-0.9 1.2-0.9h3.2q0.3-0.9 0.7-1.7l-2.3-2.3c-0.4-0.4-0.4-1-0.1-1.5 1.2-1.8 2.8-3.3 4.5-4.5 0.5-0.3 1.1-0.3 1.5 0.1l2.3 2.3q0.8-0.4 1.7-0.7v-3.2c0-0.6 0.4-1.1 1-1.2 2.1-0.4 4.2-0.4 6.4 0 0.5 0.1 0.9 0.6 0.9 1.2v3.2q0.9 0.3 1.7 0.7l2.3-2.3c0.4-0.4 1-0.4 1.5-0.1 1.8 1.2 3.3 2.7 4.5 4.5 0.3 0.5 0.3 1.1-0.1 1.5l-2.3 2.3q0.4 0.8 0.7 1.7h3.2c0.6 0 1.1 0.4 1.2 0.9zm-11.1 3.2c0-3.1-2.6-5.7-5.7-5.7-3.2 0-5.7 2.6-5.7 5.7 0 3.2 2.5 5.7 5.7 5.7 3.1 0 5.7-2.5 5.7-5.7z"></path>
</svg>
