<?xml version="1.0" encoding="UTF-8"?>
<svg xmlns="http://www.w3.org/2000/svg" version="1.2" viewBox="0 0 128 128" width="128" height="128">
  <style>.a{fill:#ff9a55}.b{fill:#fff}</style>
  <path class="a" d="m64 0c35.3 0 64 28.7 64 64 0 35.3-28.7 64-64 64-35.3 0-64-28.7-64-64 0-35.3 28.7-64 64-64z"></path>
  <path class="b" d="m40.1 61.9c1.6 0 3.1-0.7 4.1-1.7l5.9 2.9q0 0.4 0 0.8c0 3.3 2.6 5.9 5.9 5.9 3.3 0 6-2.6 6-5.9 0-1-0.2-1.8-0.6-2.6l8-8c0.8 0.4 1.6 0.6 2.6 0.6 3.3 0 5.9-2.7 5.9-6 0-0.6-0.1-1.2-0.3-1.7l7-5.3c0.9 0.7 2.1 1.1 3.3 1.1 3.3 0 6-2.7 6-6 0-3.3-2.7-6-6-6-3.3 0-6 2.7-6 6 0 0.6 0.2 1.2 0.3 1.7l-6.9 5.3c-1-0.7-2.1-1-3.3-1-3.3 0-6 2.6-6 5.9 0 0.9 0.2 1.8 0.6 2.6l-8 8c-0.8-0.4-1.6-0.6-2.6-0.6-1.6 0-3 0.6-4.1 1.7l-5.9-3q0.1-0.3 0.1-0.7c0-3.3-2.7-6-6-6-3.3 0-6 2.7-6 6 0 3.3 2.7 6 6 6zm55.9 32.1h-2.1v-42.1c0-1.1-0.9-2-2-2h-8c-1.1 0-2 0.9-2 2v42.1h-4v-30.1c0-1.1-0.8-2-1.9-2h-8c-1.1 0-2 0.9-2 2v30.1h-4v-14.2c0-1.1-0.9-2-2-2h-8c-1.1 0-1.9 0.9-1.9 2v14.2h-4v-22.2c0-1.1-0.9-2-2-2h-8c-1.1 0-2 0.9-2 2v22.2h-2.1c-1.1 0-2 0.9-2 2 0 1.1 0.9 2 2 2h64c1.1 0 2-0.9 2-2 0-1.1-0.9-2-2-2z"></path>
</svg>
