<?xml version="1.0" encoding="UTF-8"?>
<svg xmlns="http://www.w3.org/2000/svg" version="1.2" viewBox="0 0 128 128" width="128" height="128">
  <style>.a{fill:#00b1ba}.b{fill:#fff}</style>
  <path class="a" d="m64 0c35.3 0 64 28.7 64 64 0 35.3-28.7 64-64 64-35.3 0-64-28.7-64-64 0-35.3 28.7-64 64-64z"></path>
  <path class="b" d="m82.8 54.7l4.1-5.5c2.1-2.8 1.5-6.6-1.2-8.7-1.1-0.8-2.3-1.2-3.7-1.2h-18.4c0-3.4-2.8-6.2-6.2-6.2h-12.3c0-1.7-1.4-3.1-3.1-3.1-1.7 0-3 1.4-3 3.1v61.8c0 1.7 1.3 3.1 3 3.1 1.7 0 3.1-1.4 3.1-3.1v-30.9h12.3c0 3.4 2.8 6.2 6.2 6.2h18.4c3.4 0 6.2-2.8 6.2-6.2 0-1.3-0.5-2.6-1.3-3.7z"></path>
</svg>
