<?xml version="1.0" encoding="UTF-8"?>
<svg xmlns="http://www.w3.org/2000/svg" version="1.2" viewBox="0 0 151 149" width="151" height="149">
  <style>.a{fill:#00b1ba;stroke:#f6f6f3;stroke-linejoin:round;stroke-width:7}.b{fill:#fff}</style>
  <path class="a" d="m76 0c41.4 0 75 33.4 75 74.5 0 41.1-33.6 74.5-75 74.5-41.4 0-75-33.4-75-74.5 0-41.1 33.6-74.5 75-74.5z"></path>
  <path fill-rule="evenodd" class="b" d="m101 39.7l7.2 7.2q0.1 0.2 0.2 0.4h-7.1c-0.4 0-0.7-0.3-0.7-0.7v-7.2q0.2 0.1 0.4 0.3zm7.5 9.9v52c0 0.7-0.5 1.3-1.2 1.3h-46.2c-0.7 0-1.3-0.6-1.3-1.3l0.1-2.5c2.6 1.7 5.6 2.6 8.7 2.6 8.6 0 15.6-6.8 16.1-15.4q0.3 0.2 0.6 0.2h17c0.6 0 1.2-0.5 1.2-1.1 0-0.7-0.6-1.2-1.2-1.2h-17q-0.4 0-0.6 0.2c-0.6-8.4-7.6-15.1-16.1-15.1-3.2 0-6.3 1-8.8 2.7v-31.4c0-0.7 0.6-1.3 1.3-1.3h37.2v7.3c0 1.7 1.3 3 3 3zm-24.9 8q-0.2 0.4-0.2 0.9c0 1.6 1.3 2.8 2.8 2.8 1.6 0 2.8-1.2 2.8-2.8q0-0.7-0.3-1.2l4.8-5.9q0.3 0.1 0.7 0.1c1.5 0 2.8-1.2 2.8-2.8 0-1.6-1.3-2.8-2.8-2.8-1.6 0-2.8 1.2-2.8 2.8q0 0.7 0.2 1.3l-4.7 5.8c-0.5-0.2-1.2-0.1-1.7 0.1l-6.3-5.9q0.2-0.5 0.2-1c0-1.5-1.3-2.8-2.8-2.8-1.6 0-2.9 1.3-2.9 2.8q0 0.7 0.3 1.2l-6.6 7.5q-0.4-0.1-0.8-0.1c-1.6 0-2.8 1.2-2.8 2.8 0 1.5 1.2 2.8 2.8 2.8 1.5 0 2.8-1.3 2.8-2.8q0-0.6-0.3-1.2l6.6-7.5c0.6 0.2 1.3 0.2 1.9 0zm19.8 21.6c0-0.6-0.5-1.1-1.1-1.1h-17c-0.6 0-1.2 0.5-1.2 1.1 0 0.7 0.6 1.2 1.2 1.2h17c0.6 0 1.1-0.5 1.1-1.2zm0-6c0-0.7-0.5-1.2-1.1-1.2h-17c-0.6 0-1.2 0.5-1.2 1.2 0 0.6 0.6 1.2 1.2 1.2h17c0.6 0 1.1-0.6 1.1-1.2zm0-6.1c0-0.6-0.5-1.2-1.1-1.2h-17c-0.6 0-1.2 0.6-1.2 1.2 0 0.7 0.6 1.2 1.2 1.2h17c0.6 0 1.1-0.5 1.1-1.2zm-34.8 4.5c7.6 0 13.7 6.2 13.7 13.9 0 7.6-6.1 13.8-13.7 13.8-3.4 0-6.5-1.3-8.9-3.3l-4.2 4.1 0.1 0.1c0.5 0.5 0.5 1.3 0 1.8l-7.5 7.4c-0.5 0.5-1.3 0.4-1.8-0.1l-2.7-2.8c-0.5-0.5-0.5-1.3 0-1.7l7.6-7.4c0.4-0.5 1.2-0.5 1.7 0l0.2 0.2 4.3-4.2c-1.6-2.3-2.5-5-2.5-7.9 0-7.7 6.1-13.9 13.7-13.9zm0 23.8c5.5 0 9.9-4.5 9.9-9.9 0-5.5-4.4-10-9.9-10-5.4 0-9.8 4.5-9.8 10 0 5.4 4.4 9.9 9.8 9.9z"></path>
</svg>
