<?xml version="1.0" encoding="UTF-8"?>
<svg xmlns="http://www.w3.org/2000/svg" version="1.2" viewBox="0 0 151 149" width="151" height="149">
  <style>.a{fill:#ff9a55;stroke:#f6f6f3;stroke-linejoin:round;stroke-width:7}.b{fill:#fff}</style>
  <path class="a" d="m76 0c41.4 0 75 33.4 75 74.5 0 41.1-33.6 74.5-75 74.5-41.4 0-75-33.4-75-74.5 0-41.1 33.6-74.5 75-74.5z"></path>
  <path fill-rule="evenodd" class="b" d="m56.4 64.7c0-1.4 1-2.4 2.4-2.4 1.3 0 2.3 1 2.3 2.4 0 1.3-1 2.3-2.3 2.3-1.4 0-2.4-1-2.4-2.3zm-10.9-12.9h61.2v39.1c0 3-2.4 5.4-5.4 5.4h-21.5l6.1 9.3c0.6 0.9 0.3 2.2-0.6 2.8-1 0.6-2.2 0.3-2.8-0.6l-4.4-6.7v5.5c0 1.2-0.9 2.1-2 2.1-1.1 0-2-0.9-2-2.1v-5.5l-4.3 6.7c-0.4 0.6-1 0.9-1.7 0.9q-0.6 0-1.1-0.3c-0.9-0.6-1.2-1.9-0.6-2.8l6-9.3h-21.4c-3 0-5.5-2.4-5.5-5.4zm52.3 29.9l-1.8 1.8-1.8-1.8c-0.8-0.7-2.1-0.7-2.9 0-0.7 0.8-0.7 2.1 0 2.9l1.8 1.8-1.8 1.8c-0.7 0.8-0.7 2 0 2.8 0.4 0.4 0.9 0.6 1.5 0.6 0.5 0 1-0.2 1.4-0.6l1.8-1.8 1.8 1.8c0.4 0.4 0.9 0.6 1.4 0.6 0.5 0 1-0.2 1.4-0.6 0.8-0.8 0.8-2 0-2.8l-1.8-1.8 1.8-1.8c0.8-0.8 0.8-2.1 0-2.9-0.8-0.7-2.1-0.7-2.8 0zm-28-10l-13.2 12.6c-0.8 0.7-0.9 2-0.1 2.8 0.4 0.4 0.9 0.6 1.5 0.6 0.5 0 1-0.1 1.3-0.5l12.5-11.9 6.9 7.2c0.7 0.7 1.6 1 2.5 1 0.9-0.1 1.7-0.5 2.3-1.2l9-11.2c0.3 0.7 1 1.2 1.8 1.2q0.1 0 0.1 0c1.1-0.1 2-1 1.9-2.1l-0.2-3.8c0-0.7-0.3-1.3-0.9-1.7-0.5-0.5-1.1-0.7-1.8-0.6l-4.1 0.3c-1.1 0.1-1.9 1.1-1.8 2.2 0.1 1 1 1.8 2 1.8l-8.6 10.6-6.8-7.1c-1.1-1.2-3-1.3-4.3-0.3zm-17.4-7c0 3.5 2.9 6.4 6.4 6.4 3.5 0 6.4-2.9 6.4-6.4 0-3.5-2.9-6.4-6.4-6.4-3.5 0-6.4 2.9-6.4 6.4zm58.2-20.5c0 2-1.7 3.6-3.7 3.6h-61.2c-2 0-3.7-1.6-3.7-3.6 0-2.1 1.7-3.7 3.7-3.7h61.2c2 0 3.7 1.6 3.7 3.7z"></path>
</svg>
