<?xml version="1.0" encoding="UTF-8"?>
<svg xmlns="http://www.w3.org/2000/svg" version="1.2" viewBox="0 0 151 149" width="151" height="149">
  <style>.a{fill:#6797ea;stroke:#f6f6f3;stroke-linejoin:round;stroke-width:7}.b{fill:#fff}</style>
  <path class="a" d="m76 0c41.4 0 75 33.4 75 74.5 0 41.1-33.6 74.5-75 74.5-41.4 0-75-33.4-75-74.5 0-41.1 33.6-74.5 75-74.5z"></path>
  <path class="b" d="m98.1 55.3c-1.3 0-2.4-1-2.4-2.3v-7.1h-7.1c-1.3 0-2.3-1-2.3-2.3 0-1.3 1-2.4 2.3-2.4h9.5c1.3 0 2.3 1.1 2.4 2.4v9.4c-0.1 1.3-1.1 2.3-2.4 2.3zm-44.2 15.8c-1.3 0-2.4-1.1-2.4-2.4 0-0.7 0.4-1.4 0.9-1.8l18.9-15.7c0.9-0.8 2.3-0.8 3.2 0l4.8 4.9 17.3-14.3c1-0.9 2.5-0.8 3.4 0.2 0.9 1 0.7 2.5-0.3 3.4l-18.9 15.7c-0.9 0.8-2.3 0.8-3.2 0l-4.8-5-17.4 14.4c-0.4 0.4-0.9 0.5-1.5 0.6zm-6.3 10.9h12.6c1.3 0 2.4 1.1 2.4 2.4v15.7c0 1.3-1.1 2.4-2.4 2.4h-12.6c-1.3 0-2.4-1.1-2.4-2.4v-15.7c0-1.3 1.1-2.4 2.4-2.4zm22.1-9.4h12.6c1.3 0 2.4 1.1 2.4 2.4v25.1c0 1.3-1.1 2.4-2.4 2.4h-12.6c-1.3 0-2.4-1.1-2.4-2.4v-25.1c0-1.3 1.1-2.4 2.4-2.4zm22.1-12.5h12.6c1.3 0 2.4 1 2.4 2.3v37.7c0 1.3-1.1 2.4-2.4 2.4h-12.6c-1.3 0-2.4-1.1-2.4-2.4v-37.7c0-1.3 1.1-2.3 2.4-2.3zm15.8 48.7h-63.1c-1.4 0-2.4-1.1-2.4-2.4 0-1.3 1-2.4 2.4-2.4h63.1c1.3 0 2.3 1.1 2.3 2.4 0 1.3-1 2.4-2.3 2.4z"></path>
</svg>
