<svg version="1.2" xmlns="http://www.w3.org/2000/svg" viewBox="0 0 102 101" width="102" height="101"><style>.a{fill:#DF620D}.b{fill:#fff}</style><path class="a" d="m51.3 0c27.7 0 50.2 22.5 50.2 50.2 0 27.8-22.5 50.3-50.3 50.3-27.7 0-50.2-22.5-50.2-50.3 0-27.7 22.5-50.2 50.3-50.2z"/><path class="b" d="m25.4 34l15.7 15.8-15.7 15.8c-0.3-0.6-0.4-1.2-0.4-1.9v-27.7c0-0.7 0.1-1.4 0.4-2zm4.1-2.6h42.8c0.7 0 1.3 0.2 1.9 0.5l-20.1 20.2c-1.8 1.8-4.6 1.8-6.4 0l-20.1-20.2c0.6-0.3 1.2-0.5 1.9-0.5zm46.9 2.6c0.3 0.6 0.4 1.3 0.4 2v27.7c0 0.7-0.1 1.3-0.4 1.9l-15.8-15.8zm-33 18l2.2 2.2c3 3 7.8 3 10.7 0l2.3-2.2 15.7 15.8c-0.6 0.3-1.3 0.5-2 0.5h-42.7c-0.7 0-1.4-0.2-2-0.5z"/></svg>