<svg version="1.2" xmlns="http://www.w3.org/2000/svg" viewBox="0 0 102 101" width="102" height="101"><style>.a{fill:#ff6b07}.b{fill:#fff}</style><path class="a" d="m51.3 0c27.7 0 50.2 22.5 50.2 50.2 0 27.8-22.5 50.3-50.3 50.3-27.7 0-50.2-22.5-50.2-50.3 0-27.7 22.5-50.2 50.3-50.2z"/><path fill-rule="evenodd" class="b" d="m51.7 20.7c12.4 0 22.5 10 22.5 22.3 0 17.4-20.4 35.3-21.2 36.1-0.4 0.3-0.8 0.4-1.3 0.4-0.4 0-0.9-0.1-1.2-0.4-0.9-0.8-21.3-18.7-21.3-36.1 0-12.3 10.1-22.3 22.5-22.3zm0 34.3c6.9 0 12.5-5.4 12.5-12.2 0-6.8-5.6-12.3-12.5-12.3-6.9 0-12.5 5.5-12.5 12.3 0 6.8 5.6 12.2 12.5 12.2z"/></svg>