<svg version="1.2" xmlns="http://www.w3.org/2000/svg" viewBox="0 0 102 101" width="102" height="101"><style>.a{fill:#DF620D}.b{fill:#fff}</style><path class="a" d="m51.3 0c27.7 0 50.2 22.5 50.2 50.2 0 27.8-22.5 50.3-50.3 50.3-27.7 0-50.2-22.5-50.2-50.3 0-27.7 22.5-50.2 50.3-50.2z"/><path class="b" d="m66 50c-4.5 0-8.5 2-11.3 5.1l-9.5-5.8c0.5-1.4 0.8-2.8 0.8-4.3 0-1-0.1-1.9-0.4-2.9l12.7-5.8c1.8 2.2 4.6 3.7 7.7 3.7 5.5 0 10-4.5 10-10 0-5.5-4.5-10-10-10-5.5 0-10 4.5-10 10q0 0.9 0.2 1.8l-12.7 5.8c-2.2-3.1-5.9-5.1-10-5.1-6.9 0-12.5 5.6-12.5 12.5 0 6.9 5.6 12.5 12.5 12.5 3.6 0 6.8-1.5 9.1-4l9.5 5.9c-0.7 1.7-1.1 3.6-1.1 5.6 0 8.3 6.7 15 15 15 8.3 0 15-6.7 15-15 0-8.3-6.7-15-15-15z"/></svg>